<svg width="23" height="20" viewBox="0 0 23 20" fill="none" xmlns="http://www.w3.org/2000/svg">
<g clip-path="url(#clip0_3_108)">
<path d="M15.3776 0H7.37552C3.69322 0 0.707108 2.79875 0.707108 6.25V13.75C0.707108 17.2013 3.69322 20 7.37552 20H15.3776C19.0599 20 22.046 17.2013 22.046 13.75V6.25C22.046 2.79875 19.0599 0 15.3776 0ZM20.0455 13.75C20.0455 16.1625 17.9516 18.125 15.3776 18.125H7.37552C4.80151 18.125 2.70763 16.1625 2.70763 13.75V6.25C2.70763 3.8375 4.80151 1.875 7.37552 1.875H15.3776C17.9516 1.875 20.0455 3.8375 20.0455 6.25V13.75Z" fill="white"/>
<path d="M11.3766 5C8.43046 5 6.04184 7.23875 6.04184 10C6.04184 12.7613 8.43046 15 11.3766 15C14.3227 15 16.7113 12.7613 16.7113 10C16.7113 7.23875 14.3227 5 11.3766 5ZM11.3766 13.125C9.53875 13.125 8.04236 11.7225 8.04236 10C8.04236 8.27625 9.53875 6.875 11.3766 6.875C13.2144 6.875 14.7108 8.27625 14.7108 10C14.7108 11.7225 13.2144 13.125 11.3766 13.125Z" fill="white"/>
<path d="M17.1114 5.29123C17.504 5.29123 17.8222 4.99294 17.8222 4.62499C17.8222 4.25703 17.504 3.95874 17.1114 3.95874C16.7188 3.95874 16.4005 4.25703 16.4005 4.62499C16.4005 4.99294 16.7188 5.29123 17.1114 5.29123Z" fill="white"/>
</g>
<defs>
<clipPath id="clip0_3_108">
<rect width="21.3389" height="20" fill="white" transform="translate(0.707108)"/>
</clipPath>
</defs>
</svg>
